<svg width="563" height="199" viewBox="0 0 563 199" fill="none" xmlns="http://www.w3.org/2000/svg">
<rect x="11" y="11" width="552" height="188" fill="#154F3C"/>
<rect width="552" height="188" fill="white"/>
<g clip-path="url(#clip0_5_5)">
<path d="M12.6011 12.5616H93.9568V94.0216H12.6011V12.5616Z" fill="url(#paint0_linear_5_5)"/>
<path d="M12.0402 94.5825V12H94.5162V94.5818H12.0402V94.5825ZM13.159 93.4615H93.3959V13.1217H13.159V93.4615Z" fill="#072508"/>
<path d="M25.0475 31.1817H46.3289C53.76 31.1817 59.7285 34.933 59.7285 42.4394C59.7285 47.4006 57.0001 50.6426 52.0438 51.5956V51.724C58.2689 52.3603 61.7603 57.512 61.7603 62.9176C61.7603 74.2381 53.6959 76.4659 44.2949 76.4659H25.0475V31.1817ZM33.5602 49.3723H43.6601C47.4067 49.3723 50.8392 47.9077 50.8392 43.5828C50.8392 40.1474 48.6135 37.9233 43.6601 37.9233H33.5602V49.3723ZM33.5602 68.9617H44.6126C49.7577 68.9617 52.8695 67.3687 52.8695 62.6629C52.8695 57.574 49.6935 55.7301 44.5485 55.7301H33.5602V68.9617ZM67.0926 44.2833H74.8437V48.7337H74.9705C76.8136 45.0459 80.3692 43.5208 84.8795 43.5208V51.4081C79.6061 51.4081 74.8437 53.8876 74.8437 60.8825V76.4666H67.0926V44.2833ZM76.3907 23.7865H77.0567C77.737 23.7865 78.2673 23.4728 78.2673 22.7507C78.2673 21.9747 77.8183 21.499 77.0433 21.499C76.105 21.499 75.8052 22.316 75.738 23.092L73.9285 22.7096C74.2269 20.9127 75.3696 19.9732 77.1783 19.9732C78.6872 19.9732 80.0887 20.7768 80.0887 22.4512C80.0887 23.5274 79.5718 24.1405 78.5649 24.3982V24.4258C79.7218 24.6969 80.3058 25.5296 80.3207 26.7134C80.3207 28.6342 78.7432 29.5595 76.9747 29.5595C75.1652 29.5595 73.7652 28.7164 73.7652 26.3735H75.5061C75.5061 27.3668 76.0088 28.0353 77.0284 28.0353C77.8996 28.0353 78.4165 27.449 78.4165 26.6058C78.4165 25.57 77.7638 25.2301 77.056 25.2301H76.3899L76.3907 23.7865ZM82.2413 20.1367H87.4088L87.2327 21.7439H83.6562L83.3706 23.6767C83.8457 23.2563 84.4178 23.0233 85.0302 23.0233C87.0015 23.0233 87.9406 24.4803 87.9406 26.1958C87.9406 28.3213 86.4578 29.5595 84.4998 29.5595C82.7724 29.5595 81.3575 28.7029 81.2762 26.8366L83.1804 26.688C83.1938 27.4639 83.6973 28.1174 84.5133 28.1174C85.6276 28.1174 86.0371 27.1779 86.0371 26.2107C86.0371 24.9852 85.4106 24.4676 84.4857 24.4676C83.8054 24.4676 83.425 24.7664 83.167 25.3534L81.5894 25.2309L82.2413 20.1367Z" fill="white"/>
<path d="M108.169 59.7958C105.976 59.7958 105.725 59.8585 105.725 61.5524C105.725 66.6361 109.861 71.2799 115.501 71.2799C117.82 71.2799 119.952 70.5898 122.02 69.1462C123.462 68.1424 124.402 66.9497 125.655 66.9497C126.595 66.9497 127.286 67.6413 127.286 68.5196C127.286 69.4606 126.282 71.0297 124.341 72.598C120.893 75.4218 117.697 76.8662 113.373 76.8662C104.283 76.8662 97.5154 69.837 97.5154 60.7376C97.5154 50.7591 104.409 43.606 114.125 43.606C122.335 43.606 127.474 48.6254 127.474 56.5956C127.474 59.5449 126.721 59.7973 123.901 59.7973H108.609C108.42 59.7958 108.295 59.7958 108.169 59.7958ZM118.322 56.155C119.828 56.155 120.327 55.9668 120.327 54.9631C120.327 51.0086 117.382 47.6829 113.056 47.6829C108.858 47.6829 106.038 51.0086 106.038 54.9631C106.038 55.9668 106.476 56.155 107.98 56.155H118.322ZM158.615 71.0289C160.497 71.5935 161.625 71.5935 161.625 72.9109C161.625 74.7937 158.553 76.9282 154.479 76.9282C152.096 76.9282 150.467 73.6025 149.841 73.6025C148.837 73.6025 146.079 76.9282 140.502 76.9282C134.298 76.9282 130.098 72.9752 130.098 67.1379C130.098 60.4239 135.112 56.2812 144.138 56.2812C145.767 56.2812 147.773 56.4694 150.091 56.8458V53.4567C150.091 49.6919 148.398 47.6217 145.39 47.6217C143.26 47.6217 141.505 48.5627 139.874 50.4455C138.557 51.9526 137.743 53.7084 135.111 53.7084C133.417 53.7084 132.353 52.5164 132.353 50.6964C132.353 47.0571 137.18 43.606 145.577 43.606C150.403 43.606 153.787 44.9234 155.605 47.2453C157.236 49.3163 157.361 52.4544 157.361 56.9728V67.2634C157.362 69.4598 157.676 70.778 158.615 71.0289ZM145.453 60.3604C140.814 60.3604 138.182 62.5569 138.182 66.1334C138.182 69.4591 140.501 71.719 144.325 71.719C148.649 71.719 150.091 69.8982 150.091 65.6323V60.925C148.398 60.5486 146.833 60.3604 145.453 60.3604ZM174.314 54.5867C174.314 55.9041 174.376 56.5314 174.94 56.5314C175.254 56.5314 176.572 55.7159 178.576 53.8958C181.146 51.5112 182.587 50.0683 182.587 49.3155C182.587 48.4985 180.206 48.5612 180.206 46.8054C180.206 44.6717 182.775 44.2326 188.104 44.2326C191.991 44.2326 193.931 44.9854 193.931 46.6172C193.931 49.0646 190.924 48.311 188.291 49.8801C187.038 50.6329 185.659 52.0765 183.904 53.8331C183.026 54.7129 182.524 55.2775 182.524 55.6539C182.524 56.2812 183.652 57.7248 185.658 60.3612C190.108 66.1342 193.117 69.4606 194.622 70.5905C196.751 72.0962 199.51 71.5943 199.51 73.728C199.51 75.61 197.505 76.3008 193.117 76.3008C191.299 76.3008 190.109 76.1126 189.733 75.9871C187.978 75.3583 186.537 73.1006 183.968 69.8362C178.452 62.8085 175.568 59.105 174.941 59.105C174.377 59.105 174.315 59.6084 174.315 60.8003V62.1805C174.315 67.4523 174.44 70.4658 175.192 71.3441C176.071 72.3478 178.452 72.0342 178.452 74.0424C178.452 75.8632 176.134 76.3016 171.118 76.3016C165.54 76.3016 163.158 75.9879 163.158 73.8542C163.158 72.4091 164.474 72.4091 165.54 71.846C166.856 71.0932 167.106 68.834 167.106 64.5658C167.106 62.1812 167.044 59.2939 167.044 55.6546V51.7016C167.044 42.3505 166.981 38.7605 166.167 37.8195C165.665 37.2549 164.599 37.1294 163.284 36.6888C162.28 36.3751 161.841 36.1242 161.841 35.1832C161.841 33.865 163.033 33.3632 165.352 32.5476C168.987 31.2914 171.744 30.915 172.935 30.915C174.315 30.915 174.69 31.7321 174.69 33.6133C174.69 36.939 174.315 40.2773 174.315 46.5545V54.5867H174.314ZM212.235 65.8198C212.235 69.2081 212.423 71.1544 213.489 71.7183C214.932 72.5338 216.308 72.3456 216.308 74.0402C216.308 75.8609 214.053 76.2986 209.037 76.2986C203.459 76.2986 201.016 75.9849 201.016 73.8512C201.016 72.4068 202.333 72.4068 203.396 71.843C204.651 71.1529 204.901 69.5838 204.901 66.822C204.901 65.5046 204.839 63.9982 204.839 62.1147V58.7891C204.839 53.6427 204.776 50.9443 203.71 50.3797C202.144 49.5642 200.264 49.6897 200.264 48.1206C200.264 47.1168 201.142 46.4268 202.833 45.7359C207.158 44.0421 210.416 43.6037 211.043 43.6037C212.298 43.6037 212.674 44.482 212.674 46.302C212.674 47.1176 212.673 48.2468 212.611 49.6277L212.36 57.7861C212.298 60.5486 212.235 63.2469 212.235 65.8198ZM208.098 31.9128C210.98 31.9128 212.925 33.7336 212.925 35.992C212.925 38.2512 210.795 40.1959 207.722 40.1959C204.901 40.1959 202.958 38.5021 202.958 36.3057C202.959 33.9838 205.152 31.9128 208.098 31.9128ZM239.704 43.6045C242.963 43.6045 245.908 45.1728 247.727 47.3065C250.234 50.3185 250.422 54.0206 250.422 59.0415V63.3724C250.422 64.878 250.359 66.1334 250.359 67.2626C250.359 69.7728 250.547 71.1544 251.801 71.8445C252.867 72.4091 254.183 72.4091 254.183 73.8527C254.183 75.9857 251.801 76.2373 246.348 76.2373C241.208 76.2373 238.827 75.9237 238.827 74.0409C238.827 72.3448 240.205 72.533 241.646 71.719C242.775 71.0917 242.963 68.958 242.963 65.0677C242.963 54.9638 242.837 49.7546 237.01 49.7546C234.754 49.7546 232.496 51.1975 231.369 53.5194C230.178 55.9041 230.116 60.1095 230.116 66.1969C230.116 69.3344 230.178 71.0924 231.306 71.7197C232.749 72.5353 234.126 72.3471 234.126 74.0416C234.126 75.8624 231.87 76.3008 226.855 76.3008C221.277 76.3008 218.833 75.9871 218.833 73.8534C218.833 72.4083 220.15 72.4083 221.213 71.8452C222.469 71.1551 222.72 69.586 222.72 66.8243C222.72 65.5068 222.657 64.0005 222.657 62.117V58.7913C222.657 53.6449 222.594 50.9466 221.526 50.382C219.96 49.5664 218.081 49.6919 218.081 48.1228C218.081 47.1191 218.957 46.429 220.651 45.7382C224.724 44.1698 227.732 43.7307 228.546 43.7307C229.738 43.7307 230.24 44.2953 230.24 45.7382V47.8726C230.24 48.1236 230.24 48.249 230.49 48.249C230.607 48.2467 230.718 48.2021 230.804 48.1236L231.556 47.4335C233.437 45.7374 235.129 43.6045 239.704 43.6045ZM256.625 55.7159C256.625 48.8121 262.391 43.6045 270.476 43.6045C272.67 43.6045 275.428 44.1063 278.749 44.8592C280.443 44.8592 282.259 43.9809 284.703 42.2863C285.58 42.8509 286.083 43.6052 286.083 44.3573C286.083 46.1138 284.765 47.8711 282.196 49.19C283.074 50.8839 283.515 52.5157 283.515 54.3992C283.515 61.3014 277.998 66.3224 269.473 66.3224C267.155 66.3224 265.025 66.0087 263.081 65.3186C262.203 66.2596 261.765 67.0752 261.765 67.8287C261.765 69.8982 263.832 70.778 267.969 70.778C271.166 70.778 274.424 70.0864 277.809 70.0864C283.763 70.0864 286.96 72.5965 286.96 77.0529C286.96 83.5802 279.94 88.9148 269.286 88.9148C260.636 88.9148 255.121 84.7736 255.121 80.4413C255.121 78.1194 256.627 76.551 259.634 74.731C257.128 73.8527 255.749 72.1581 255.749 70.0237C255.749 67.8287 257.316 65.757 260.386 63.8743C257.878 61.7406 256.625 58.9788 256.625 55.7159ZM262.017 79.8147C262.017 82.6384 265.088 84.7744 270.477 84.7744C276.493 84.7744 280.378 82.0746 280.378 79.0626C280.378 77.0544 278.938 75.8624 276.181 75.8624C274.237 75.8624 271.353 76.4898 267.657 76.4898C266.401 76.4898 265.088 76.427 263.644 76.2388C262.516 77.3038 262.017 78.4345 262.017 79.8147ZM269.912 62.179C273.484 62.179 276.179 59.2924 276.179 54.9631C276.179 50.5067 273.547 47.6202 269.975 47.6202C266.714 47.6202 264.083 50.5694 264.083 54.9003C264.083 59.3552 266.527 62.179 269.912 62.179ZM202.722 154.526C202.722 153.961 202.597 153.71 202.47 153.71C202.282 153.71 201.53 154.4 200.09 155.467C197.647 157.288 195.263 158.228 192.568 158.228C184.796 158.228 179.093 152.142 179.093 142.728C179.093 132.31 185.486 125.158 194.511 125.158C198.9 125.158 201.595 127.041 202.095 127.041C202.471 127.041 202.533 126.476 202.533 125.471V123.2C202.533 120.313 202.157 119.37 200.528 118.806C199.023 118.304 197.71 118.304 197.71 116.861C197.71 115.48 199.025 114.852 201.658 113.911C204.413 112.908 206.608 112.53 208.174 112.53C209.616 112.53 210.179 113.284 210.179 115.166C210.179 116.233 209.803 121.831 209.803 135.009C209.803 145.74 209.866 151.2 210.745 151.827C212.123 152.831 214.63 152.204 214.63 154.086C214.63 155.592 212.937 156.094 209.678 157.161C207.484 157.914 205.227 158.165 204.412 158.165C203.221 158.165 202.721 157.538 202.721 156.095V154.526H202.722ZM202.408 136.452C202.408 134.695 202.408 133.502 201.781 132.687C200.466 130.929 197.772 129.488 195.013 129.488C190.437 129.488 187.241 133.44 187.241 140.344C187.241 147.811 190.876 152.455 195.452 152.455C199.901 152.455 202.408 150.009 202.408 145.177V136.452Z" fill="#154F3C"/>
<path d="M93.9673 93.9806H175.326V175.441H93.9673V93.9806Z" fill="url(#paint1_linear_5_5)"/>
<path d="M93.4064 176V93.4205H175.885V176H93.4064ZM94.5252 174.882H174.767L174.765 94.5415H94.5252V174.882Z" fill="#072508"/>
<path d="M100.055 112.603H121.331C128.764 112.603 134.734 116.355 134.734 123.859C134.734 128.82 132.002 132.059 127.046 133.015V133.144C133.273 133.779 136.766 138.929 136.766 144.333C136.766 155.655 128.7 157.884 119.297 157.884H100.054L100.055 112.603ZM108.566 130.79H118.664C122.409 130.79 125.842 129.327 125.842 125.005C125.842 121.57 123.618 119.343 118.664 119.343H108.566V130.79ZM108.566 150.378H119.614C124.761 150.378 127.876 148.788 127.876 144.08C127.876 138.994 124.698 137.151 119.553 137.151H108.566L108.566 150.378ZM168.967 152.477C168.967 155.784 169.729 157.184 170.172 157.883H161.979C161.474 157.12 161.218 155.783 161.218 154.956C158.233 157.373 154.738 158.644 150.735 158.644C144.638 158.644 139.811 154.766 139.811 148.536C139.811 142.236 144.829 139.435 149.593 138.482L152.832 137.848C155.627 137.276 159.249 136.64 161.218 135.94V134.986C161.218 131.806 158.487 130.917 155.119 130.917C150.61 130.917 149.147 132.252 149.147 135.752L141.398 135.432C141.398 127.865 148.067 124.943 155.119 124.943C162.046 124.943 168.967 126.342 168.967 135.497L168.967 152.477ZM161.218 141.792C160.205 142.302 158.932 142.683 157.533 142.935L153.276 143.828C150.356 144.4 147.944 145.225 147.944 148.278C147.944 150.697 150.165 152.287 152.962 152.287C156.583 152.287 161.22 150.505 161.22 146.373L161.218 141.792ZM155.774 101.019H160.943L160.766 102.626H157.189L156.904 104.56C157.38 104.138 157.951 103.906 158.563 103.906C160.537 103.906 161.474 105.363 161.474 107.08C161.474 109.204 159.991 110.443 158.033 110.443C156.306 110.443 154.89 109.585 154.809 107.719L156.714 107.571C156.728 108.347 157.23 109 158.047 109C159.163 109 159.571 108.061 159.571 107.093C159.571 105.867 158.944 105.35 158.019 105.35C157.341 105.35 156.959 105.649 156.7 106.236L155.123 106.114L155.774 101.019ZM167.051 103.444C166.998 102.79 166.576 102.382 165.95 102.382C164.629 102.382 164.331 104.108 164.331 105.198H164.358C164.589 104.858 165.119 104.342 166.167 104.342C167.893 104.342 168.901 105.58 168.901 107.392C168.901 109.109 167.649 110.443 165.813 110.443C163.12 110.443 162.507 108.032 162.507 105.881C162.507 102.954 163.649 100.856 165.961 100.856C167.512 100.856 168.546 101.66 168.806 103.211L167.051 103.444ZM164.467 107.392C164.467 108.344 164.943 108.917 165.815 108.917C166.684 108.917 167.161 108.344 167.161 107.392C167.161 106.44 166.684 105.867 165.815 105.867C164.943 105.868 164.467 106.44 164.467 107.392Z" fill="white"/>
</g>
<g filter="url(#filter0_d_5_5)">
<path d="M334.188 71.2188C337.604 71.2188 340.615 71.9583 343.219 73.4375C345.823 74.9167 347.833 77.0104 349.25 79.7188C350.688 82.4271 351.406 85.5833 351.406 89.1875C351.406 92.7917 350.688 95.9583 349.25 98.6875C347.833 101.396 345.823 103.49 343.219 104.969C340.615 106.448 337.604 107.188 334.188 107.188C333.667 107.188 333.198 107.167 332.781 107.125L329.469 110.438C331.094 109.833 332.719 109.531 334.344 109.531C334.99 109.531 335.667 109.573 336.375 109.656C337.104 109.76 337.792 109.875 338.438 110C339.021 110.104 339.615 110.198 340.219 110.281C340.844 110.385 341.427 110.438 341.969 110.438C343.594 110.438 345.188 110.021 346.75 109.188C347 109.062 347.26 109 347.531 109C347.99 109 348.438 109.188 348.875 109.562C349.333 109.938 349.719 110.448 350.031 111.094C350.427 111.885 350.625 112.604 350.625 113.25C350.625 114.125 350.26 114.833 349.531 115.375C348.344 116.25 347.177 116.865 346.031 117.219C344.906 117.594 343.75 117.781 342.562 117.781C341.812 117.781 341.042 117.719 340.25 117.594C339.479 117.49 338.562 117.333 337.5 117.125C336.146 116.875 335.031 116.688 334.156 116.562C333.302 116.458 332.396 116.406 331.438 116.406C328.979 116.406 326.594 116.896 324.281 117.875C324.156 117.938 324.01 117.969 323.844 117.969C323.448 117.969 323.031 117.781 322.594 117.406C322.156 117.031 321.781 116.552 321.469 115.969C321.01 115.156 320.781 114.385 320.781 113.656C320.781 113.031 320.958 112.542 321.312 112.188L327.188 105.938C324 104.667 321.5 102.573 319.688 99.6562C317.875 96.7396 316.969 93.25 316.969 89.1875C316.969 85.5833 317.677 82.4271 319.094 79.7188C320.531 77.0104 322.552 74.9167 325.156 73.4375C327.76 71.9583 330.771 71.2188 334.188 71.2188ZM334.188 78.3125C331.312 78.3125 329.115 79.2604 327.594 81.1562C326.094 83.0521 325.344 85.7292 325.344 89.1875C325.344 92.6458 326.094 95.3333 327.594 97.25C329.115 99.1458 331.312 100.094 334.188 100.094C337.062 100.094 339.25 99.1458 340.75 97.25C342.271 95.3333 343.031 92.6458 343.031 89.1875C343.031 85.7292 342.271 83.0521 340.75 81.1562C339.25 79.2604 337.062 78.3125 334.188 78.3125ZM383.656 80.125C384.365 80.125 384.865 80.2812 385.156 80.5938C385.469 80.8854 385.625 81.3854 385.625 82.0938V102.594H388.031C388.531 102.594 388.917 102.677 389.188 102.844C389.458 103.01 389.656 103.323 389.781 103.781C389.927 104.24 390 104.906 390 105.781C390 106.656 389.927 107.323 389.781 107.781C389.656 108.24 389.458 108.562 389.188 108.75C388.917 108.917 388.531 109 388.031 109H381.031C380.323 109 379.812 108.854 379.5 108.562C379.208 108.25 379.062 107.74 379.062 107.031V102.5C376.312 107.292 372.875 109.688 368.75 109.688C366.854 109.688 365.188 109.271 363.75 108.438C362.333 107.604 361.24 106.427 360.469 104.906C359.698 103.365 359.312 101.562 359.312 99.5V86.5312H356.906C356.406 86.5312 356.021 86.4479 355.75 86.2812C355.479 86.0938 355.271 85.7708 355.125 85.3125C355 84.8542 354.938 84.1875 354.938 83.3125C354.938 82.4375 355 81.7708 355.125 81.3125C355.271 80.8542 355.479 80.5417 355.75 80.375C356.021 80.2083 356.406 80.125 356.906 80.125H365.156C365.865 80.125 366.365 80.2812 366.656 80.5938C366.969 80.8854 367.125 81.3854 367.125 82.0938V97.6562C367.125 99.2812 367.406 100.51 367.969 101.344C368.531 102.177 369.469 102.594 370.781 102.594C371.99 102.594 373.135 102.094 374.219 101.094C375.302 100.073 376.167 98.7188 376.812 97.0312C377.479 95.3438 377.812 93.5417 377.812 91.625V86.5312H374.469C373.969 86.5312 373.583 86.4479 373.312 86.2812C373.042 86.0938 372.833 85.7708 372.688 85.3125C372.562 84.8542 372.5 84.1875 372.5 83.3125C372.5 82.4375 372.562 81.7708 372.688 81.3125C372.833 80.8542 373.042 80.5417 373.312 80.375C373.583 80.2083 373.969 80.125 374.469 80.125H383.656ZM410.938 79.4375C414.104 79.4375 416.875 80.0833 419.25 81.375C421.625 82.6667 423.448 84.4583 424.719 86.75C426.01 89.0417 426.656 91.6458 426.656 94.5625C426.656 97.4792 426.01 100.083 424.719 102.375C423.448 104.667 421.625 106.458 419.25 107.75C416.875 109.042 414.104 109.688 410.938 109.688C407.771 109.688 405 109.042 402.625 107.75C400.25 106.458 398.417 104.667 397.125 102.375C395.854 100.083 395.219 97.4792 395.219 94.5625C395.219 91.6458 395.854 89.0417 397.125 86.75C398.417 84.4583 400.25 82.6667 402.625 81.375C405 80.0833 407.771 79.4375 410.938 79.4375ZM410.938 86.5312C409.438 86.5312 408.135 86.8646 407.031 87.5312C405.927 88.1771 405.073 89.1042 404.469 90.3125C403.885 91.5208 403.594 92.9375 403.594 94.5625C403.594 96.1875 403.885 97.6042 404.469 98.8125C405.073 100.021 405.927 100.958 407.031 101.625C408.135 102.271 409.438 102.594 410.938 102.594C412.438 102.594 413.74 102.271 414.844 101.625C415.948 100.958 416.792 100.021 417.375 98.8125C417.979 97.6042 418.281 96.1875 418.281 94.5625C418.281 92.9375 417.979 91.5208 417.375 90.3125C416.792 89.1042 415.948 88.1771 414.844 87.5312C413.74 86.8646 412.438 86.5312 410.938 86.5312ZM445.281 71.2188C446.26 71.2188 447.01 71.2917 447.531 71.4375C448.073 71.5625 448.448 71.7604 448.656 72.0312C448.865 72.3021 448.969 72.6875 448.969 73.1875V82H460.562C461.292 82 461.802 82.2396 462.094 82.7188C462.385 83.1979 462.531 84.0833 462.531 85.375C462.531 86.6667 462.385 87.5521 462.094 88.0312C461.802 88.4896 461.292 88.7188 460.562 88.7188H448.969V97.4062C448.969 100.865 450.312 102.594 453 102.594C453.958 102.594 455.073 102.385 456.344 101.969C457.635 101.531 459.135 100.927 460.844 100.156C461.302 99.9688 461.667 99.875 461.938 99.875C462.375 99.875 462.781 100.062 463.156 100.438C463.531 100.792 463.885 101.385 464.219 102.219C464.594 103.156 464.781 103.917 464.781 104.5C464.781 104.958 464.667 105.344 464.438 105.656C464.229 105.948 463.906 106.208 463.469 106.438C459.177 108.604 455.458 109.688 452.312 109.688C448.688 109.688 445.917 108.677 444 106.656C442.104 104.635 441.156 101.688 441.156 97.8125V88.7188H435.125C434.396 88.7188 433.885 88.4896 433.594 88.0312C433.302 87.5521 433.156 86.6667 433.156 85.375C433.156 84.0833 433.302 83.1979 433.594 82.7188C433.885 82.2396 434.396 82 435.125 82H441.156V73.1875C441.156 72.4792 441.469 71.9792 442.094 71.6875C442.74 71.375 443.802 71.2188 445.281 71.2188ZM488.125 79.4375C491.292 79.4375 493.99 80.125 496.219 81.5C498.448 82.8542 500.125 84.75 501.25 87.1875C502.396 89.6042 502.969 92.375 502.969 95.5C502.969 96.2083 502.812 96.7083 502.5 97C502.208 97.2917 501.708 97.4375 501 97.4375H480.938C481.333 99.1042 482.177 100.385 483.469 101.281C484.781 102.156 486.438 102.594 488.438 102.594C491.667 102.594 495.167 102.021 498.938 100.875C499.188 100.792 499.438 100.75 499.688 100.75C500.146 100.75 500.542 100.958 500.875 101.375C501.208 101.792 501.51 102.5 501.781 103.5C501.99 104.271 502.094 104.927 502.094 105.469C502.094 106.01 501.969 106.438 501.719 106.75C501.49 107.042 501.104 107.281 500.562 107.469C498.479 108.156 496.354 108.698 494.188 109.094C492.021 109.49 489.896 109.688 487.812 109.688C484.646 109.688 481.917 109.042 479.625 107.75C477.333 106.458 475.583 104.677 474.375 102.406C473.188 100.115 472.594 97.5 472.594 94.5625C472.594 91.6458 473.219 89.0417 474.469 86.75C475.719 84.4583 477.521 82.6667 479.875 81.375C482.229 80.0833 484.979 79.4375 488.125 79.4375ZM488.125 86.5312C484.312 86.5312 481.958 88.1354 481.062 91.3438H494.812C494.458 89.8229 493.698 88.6458 492.531 87.8125C491.385 86.9583 489.917 86.5312 488.125 86.5312ZM535.188 79.4375C536.521 79.4375 537.469 79.5938 538.031 79.9062C538.594 80.1979 538.875 80.6979 538.875 81.4062V88C538.875 88.7083 538.646 89.2188 538.188 89.5312C537.75 89.8229 537.021 89.9688 536 89.9688C534.896 89.9688 534.135 89.75 533.719 89.3125C532.49 88 531.083 87.0729 529.5 86.5312C527.917 85.9688 526.083 85.6875 524 85.6875C522.771 85.6875 521.802 85.9062 521.094 86.3438C520.406 86.7812 520.062 87.3646 520.062 88.0938C520.062 88.9688 520.833 89.5938 522.375 89.9688C523.188 90.1771 524.573 90.375 526.531 90.5625C528.469 90.7917 530.073 91.0208 531.344 91.25C532.635 91.4792 533.854 91.8229 535 92.2812C536.667 92.9688 537.969 93.9271 538.906 95.1562C539.844 96.3854 540.312 98.0104 540.312 100.031C540.312 102.01 539.823 103.729 538.844 105.188C537.885 106.625 536.469 107.74 534.594 108.531C532.74 109.302 530.5 109.688 527.875 109.688C524.979 109.688 522.292 108.948 519.812 107.469V107.719C519.812 108.427 519.51 108.927 518.906 109.219C518.302 109.531 517.333 109.688 516 109.688C514.667 109.688 513.719 109.531 513.156 109.219C512.594 108.927 512.312 108.427 512.312 107.719V100.75C512.312 100.062 512.552 99.5625 513.031 99.25C513.531 98.9375 514.292 98.7812 515.312 98.7812C516.583 98.7812 517.448 99.0729 517.906 99.6562C518.948 100.969 520.281 101.927 521.906 102.531C523.531 103.135 525.312 103.438 527.25 103.438C530.583 103.438 532.25 102.573 532.25 100.844C532.25 100.323 532.01 99.9062 531.531 99.5938C531.073 99.2812 530.385 99.0208 529.469 98.8125C528.948 98.7083 527.74 98.5208 525.844 98.25C523.74 98 521.927 97.7188 520.406 97.4062C518.906 97.0729 517.542 96.5625 516.312 95.875C513.438 94.2917 512 91.7917 512 88.375C512 86.5625 512.49 84.9792 513.469 83.625C514.448 82.2708 515.792 81.2396 517.5 80.5312C519.229 79.8021 521.167 79.4375 523.312 79.4375C526.458 79.4375 529.25 80.1979 531.688 81.7188V81.4062C531.688 80.6979 531.938 80.1979 532.438 79.9062C532.958 79.5938 533.875 79.4375 535.188 79.4375Z" fill="#154F3C"/>
</g>
<line x1="302" y1="12" x2="302" y2="176" stroke="black" stroke-width="2"/>
<defs>
<filter id="filter0_d_5_5" x="312.969" y="71.2188" width="231.344" height="54.75" filterUnits="userSpaceOnUse" color-interpolation-filters="sRGB">
<feFlood flood-opacity="0" result="BackgroundImageFix"/>
<feColorMatrix in="SourceAlpha" type="matrix" values="0 0 0 0 0 0 0 0 0 0 0 0 0 0 0 0 0 0 127 0" result="hardAlpha"/>
<feOffset dy="4"/>
<feGaussianBlur stdDeviation="2"/>
<feComposite in2="hardAlpha" operator="out"/>
<feColorMatrix type="matrix" values="0 0 0 0 0 0 0 0 0 0 0 0 0 0 0 0 0 0 0.25 0"/>
<feBlend mode="normal" in2="BackgroundImageFix" result="effect1_dropShadow_5_5"/>
<feBlend mode="normal" in="SourceGraphic" in2="effect1_dropShadow_5_5" result="shape"/>
</filter>
<linearGradient id="paint0_linear_5_5" x1="12.5996" y1="12.5624" x2="94.0595" y2="93.918" gradientUnits="userSpaceOnUse">
<stop stop-color="#15453D"/>
<stop offset="1" stop-color="#006C24"/>
</linearGradient>
<linearGradient id="paint1_linear_5_5" x1="175.325" y1="175.442" x2="93.8638" y2="94.0842" gradientUnits="userSpaceOnUse">
<stop stop-color="#15453D"/>
<stop offset="1" stop-color="#006C24"/>
</linearGradient>
<clipPath id="clip0_5_5">
<rect width="275" height="164" fill="white" transform="translate(12 12)"/>
</clipPath>
</defs>
</svg>
